<?xml version="1.0" encoding="UTF-8"?> <!-- Generator: Adobe Illustrator 24.2.1, SVG Export Plug-In . SVG Version: 6.00 Build 0) --> <svg xmlns="http://www.w3.org/2000/svg" xmlns:xlink="http://www.w3.org/1999/xlink" version="1.1" x="0px" y="0px" viewBox="0 0 751.25 124.6" style="enable-background:new 0 0 751.25 124.6;" xml:space="preserve"> <style type="text/css"> .st0{display:none;} .st1{fill:#FBCD18;} .st2{fill:#2FBCB0;} .st3{fill:#1F1F4F;} </style> <g id="Logo_white"> </g> <g id="Logo_color"> <g> <path class="st1" d="M100.29,96.43H53.71C28.24,96.43,7.6,75.78,7.6,50.32v0h92.69V96.43z"></path> <rect x="53.94" y="50.32" class="st2" width="46.35" height="46.11"></rect> <path class="st3" d="M100.29,50.32H7.6v0c0-25.47,20.64-46.11,46.11-46.11h0.47C79.65,4.21,100.29,24.85,100.29,50.32 L100.29,50.32z"></path> </g> <g> <path d="M145.88,64.6v19.1h31.47v12.73h-44.11V23.36h44.11v12.73h-31.47v15.78h31.47V64.6H145.88z"></path> <path d="M212.86,96.43c-15.78,0-28.6-12.82-28.6-28.6s12.82-28.6,28.6-28.6c5.92,0,11.3,1.79,15.87,4.84V23.36h12.73v44.47 C241.46,83.61,228.64,96.43,212.86,96.43z M228.73,67.83c0-8.79-7.08-15.87-15.87-15.87c-8.79,0-15.87,7.08-15.87,15.87 c0,8.79,7.08,15.87,15.87,15.87C221.64,83.7,228.73,76.62,228.73,67.83z"></path> <path d="M248.18,39.23h12.64v31.74c0,6.99,5.74,12.73,12.73,12.73c6.99,0,12.73-5.74,12.73-12.73V39.23h12.73v31.74 c0,14.08-11.39,25.46-25.46,25.46c-13.99,0-25.37-11.39-25.37-25.46V39.23z"></path> <path d="M334.07,39.23c15.78,0,28.6,12.82,28.6,28.6s-12.82,28.6-28.6,28.6c-5.92,0-11.39-1.79-15.87-4.84v27.35h-12.73V67.83 C305.47,52.05,318.29,39.23,334.07,39.23z M318.2,67.83c0,8.79,7.08,15.87,15.87,15.87s15.87-7.08,15.87-15.87 c0-8.79-7.08-15.87-15.87-15.87S318.2,59.04,318.2,67.83z"></path> <path d="M368.23,23.36h12.64v44.47c0,8.79,7.17,15.87,15.87,15.87v12.73c-15.78,0-28.51-12.82-28.51-28.6V23.36z"></path> <path d="M398.81,67.83c0-15.78,12.82-28.6,28.6-28.6s28.6,12.82,28.6,28.6s-12.82,28.6-28.6,28.6S398.81,83.61,398.81,67.83z M443.28,67.83c0-8.79-7.08-15.96-15.87-15.96c-8.79,0-15.87,7.17-15.87,15.96c0,8.7,7.08,15.87,15.87,15.87 C436.2,83.7,443.28,76.53,443.28,67.83z"></path> <path d="M462.65,119.03h-0.18v-12.82c5.83-0.72,10.94-4.48,13.09-10.31l1.79-5.02L454.4,39.23h13.9l15.33,34.43l12.55-34.43h13.54 l-22.24,60.97C483.54,111.14,473.58,118.22,462.65,119.03z"></path> <path d="M564.59,39.23c11.48,0,20.71,9.24,20.71,20.62v36.58h-12.73V59.85c0-4.39-3.59-7.98-7.98-7.98c-4.3,0-7.89,3.59-7.89,7.98 v36.58h-12.73V59.85c0-4.39-3.59-7.98-7.98-7.98c-4.3,0-7.89,3.59-7.89,7.98v36.58h-12.73V59.85c0-11.39,9.24-20.62,20.62-20.62 c5.56,0,10.67,2.15,14.35,5.74C554.01,41.38,559.12,39.23,564.59,39.23z"></path> <path d="M647.7,67.83c0,1.25-0.09,2.6-0.27,3.86c-14.61,0-29.23,0-43.75,0c1.7,6.9,7.98,12.01,15.42,12.01 c3.86,0,7.44-1.43,10.22-3.77h15.6c-4.57,9.77-14.43,16.5-25.82,16.5c-15.78,0-28.6-12.82-28.6-28.6s12.82-28.6,28.6-28.6 S647.7,52.05,647.7,67.83z M633.89,62.18c-2.24-6.01-8.07-10.31-14.79-10.31c-6.81,0-12.64,4.3-14.88,10.31H633.89z"></path> <path d="M703.74,96.43h-12.73V64.6c0-6.99-5.65-12.73-12.73-12.73c-6.99,0-12.64,5.74-12.64,12.73v31.83H652.9V64.6 c0-13.99,11.39-25.37,25.37-25.37c14.08,0,25.46,11.39,25.46,25.37V96.43z"></path> <path d="M726.6,38.6h5.74v9.5h-5.74v29.23c0,3.59,2.78,6.37,6.28,6.37h3.23v12.73h-3.23c-10.49,0-19.01-8.52-19.01-19.1V48.11 h-5.74v-9.5h5.74V23.36h12.73V38.6z"></path> </g> </g> </svg> 