<?xml version="1.0" encoding="UTF-8" standalone="no"?>
<!DOCTYPE svg PUBLIC "-//W3C//DTD SVG 1.1//EN" "http://www.w3.org/Graphics/SVG/1.1/DTD/svg11.dtd">
<svg width="100%" height="100%" viewBox="0 0 225 225" version="1.1" xmlns="http://www.w3.org/2000/svg" xmlns:xlink="http://www.w3.org/1999/xlink" xml:space="preserve" xmlns:serif="http://www.serif.com/" style="fill-rule:evenodd;clip-rule:evenodd;stroke-linejoin:round;stroke-miterlimit:2;">
    <g transform="matrix(1.95146,0,0,1.95146,7.22855,14.3026)">
        <g id="Logo_color">
            <g>
                <path d="M100.29,96.43L53.71,96.43C28.24,96.43 7.6,75.78 7.6,50.32L100.29,50.32L100.29,96.43Z" style="fill:rgb(251,205,24);fill-rule:nonzero;stroke:rgb(245,245,245);stroke-width:4.1px;"/>
                <rect x="53.94" y="50.32" width="46.35" height="46.11" style="fill:rgb(47,188,176);stroke:rgb(245,245,245);stroke-width:4.1px;"/>
                <path d="M100.29,50.32L7.6,50.32C7.6,24.85 28.24,4.21 53.71,4.21L54.18,4.21C79.65,4.21 100.29,24.85 100.29,50.32Z" style="fill:rgb(31,31,79);fill-rule:nonzero;stroke:rgb(245,245,245);stroke-width:4.1px;"/>
            </g>
            <g>
                <path d="M100.29,96.43L53.71,96.43C28.24,96.43 7.6,75.78 7.6,50.32L100.29,50.32L100.29,96.43Z" style="fill:rgb(251,205,24);fill-rule:nonzero;"/>
                <rect x="53.94" y="50.32" width="46.35" height="46.11" style="fill:rgb(47,188,176);"/>
                <path d="M100.29,50.32L7.6,50.32C7.6,24.85 28.24,4.21 53.71,4.21L54.18,4.21C79.65,4.21 100.29,24.85 100.29,50.32Z" style="fill:rgb(31,31,79);fill-rule:nonzero;"/>
            </g>
        </g>
    </g>
</svg>
